# xmcd
#
# Track frame offsets: 
#        19315
#        37910
#        62485
#        85660
#        106852
#        125155
#        141850
#        158825
#        177530
#        193832
#        213655
#        228032
#        249082
#        275080
#
# Disc length: 3779 seconds
#
# Revision: 5
# Processed by: cddbd v1.5.2PL0 Copyright (c) Steve Scherf et al.
# Submitted via: ExactAudioCopy v1.0b3
#
DISCID=cd0dc20e
DTITLE=Kris Kristofferson - A Moment Of Forever
DYEAR=1995
DGENRE=Country
TTITLE0=A Moment Of Forever
TTITLE1=Worth Fighting For
TTITLE2=Johnny Lobo
TTITLE3=The Promise
TTITLE4=Shipwrecked In The Eighties
TTITLE5=Slouching Toward The Millennium
TTITLE6=Between Heaven And Here
TTITLE7=Casey's Last Ride
TTITLE8=Good Love (Shouldn't Feel So Bad)
TTITLE9=New Game Now
TTITLE10=New Mister Me
TTITLE11=Under The Gun
TTITLE12=Road Warrior's Lament
TTITLE13=Sam's Song (Ask Any Working Girl)
EXTD=
EXTT0=
EXTT1=
EXTT2=
EXTT3=
EXTT4=
EXTT5=
EXTT6=
EXTT7=
EXTT8=
EXTT9=
EXTT10=
EXTT11=
EXTT12=
EXTT13=
PLAYORDER=
